inDegrees=no
num_controls=7
num_derivatives=13
num_iterations=172
num_multipliers=7
num_parameters=0
num_slacks=7
num_states=26
objective=3.979295
objective_accelerations=0.539823
objective_balance=0.071331
objective_effort=0.463968
objective_height=2.843095
objective_ligament=0.061078
solver_duration=1829.389496
status=Solve_Succeeded
success=true
DataType=double
version=3
OpenSimVersion=4.4-2022-07-23-0e9fedc
endheader
time	/jointset/ground_pelvis/pelvis_tilt/value	/jointset/ground_pelvis/pelvis_tx/value	/jointset/ground_pelvis/pelvis_ty/value	/jointset/hip_l/hip_flexion_l/value	/jointset/hip_l/hip_adduction_l/value	/jointset/hip_l/hip_rotation_l/value	/jointset/back/lumbar_extension/value	/jointset/patellofemoral_l/patellar_flexion_l/value	/jointset/knee_l/knee_flexion_l/value	/jointset/knee_l/knee_adduction_l/value	/jointset/knee_l/knee_rotation_l/value	/jointset/ankle_l/ankle_angle_l/value	/jointset/subtalar_l/subtalar_angle_l/value	/jointset/ground_pelvis/pelvis_tilt/speed	/jointset/ground_pelvis/pelvis_tx/speed	/jointset/ground_pelvis/pelvis_ty/speed	/jointset/hip_l/hip_flexion_l/speed	/jointset/hip_l/hip_adduction_l/speed	/jointset/hip_l/hip_rotation_l/speed	/jointset/back/lumbar_extension/speed	/jointset/patellofemoral_l/patellar_flexion_l/speed	/jointset/knee_l/knee_flexion_l/speed	/jointset/knee_l/knee_adduction_l/speed	/jointset/knee_l/knee_rotation_l/speed	/jointset/ankle_l/ankle_angle_l/speed	/jointset/subtalar_l/subtalar_angle_l/speed	/forceset/tau_hip_flexion_l	/forceset/tau_hip_adduction_l	/forceset/tau_hip_rotation_l	/forceset/tau_knee_flexion_l	/forceset/tau_ankle_angle_l	/forceset/tau_subtalar_angle_l	/forceset/tau_lumbar_extension	lambda_cid13_p0	lambda_cid13_p1	lambda_cid13_p2	lambda_cid13_p3	lambda_cid13_p4	lambda_cid13_p5	lambda_cid14_p0	/jointset/ground_pelvis/pelvis_tilt/accel	/jointset/ground_pelvis/pelvis_tx/accel	/jointset/ground_pelvis/pelvis_ty/accel	/jointset/hip_l/hip_flexion_l/accel	/jointset/hip_l/hip_adduction_l/accel	/jointset/hip_l/hip_rotation_l/accel	/jointset/back/lumbar_extension/accel	/jointset/patellofemoral_l/patellar_flexion_l/accel	/jointset/knee_l/knee_flexion_l/accel	/jointset/knee_l/knee_adduction_l/accel	/jointset/knee_l/knee_rotation_l/accel	/jointset/ankle_l/ankle_angle_l/accel	/jointset/subtalar_l/subtalar_angle_l/accel	gamma_cid13_p0	gamma_cid13_p1	gamma_cid13_p2	gamma_cid13_p3	gamma_cid13_p4	gamma_cid13_p5	gamma_cid14_p0
0.5	-0.3593065141704296	-0.03114293459092108	0.7185038176055292	1.341069106097154	-0.2800137763780529	0.03018388540044047	-0.3388519997127981	1.030363204030337	1.030363204030409	-0.09887303896418692	0.174532798391267	0.247080512731501	0.02762596710888723	-0.4505312957045445	-0.1271785243230016	-0.7171660399688704	2.560277523953781	0.09286353785018614	0.7132573234227949	-0.607654872957161	2.671715737736764	2.671715737736919	0.1880807323949612	-3.817001495852882e-05	0.715181409292678	0.268155247436656	-0.2067003996695596	0.003314652469839907	-0.01274276498541159	-0.2837873559006256	0.0810300213907228	0.0285145170893368	0.2010936324025567	-11.13346558692883	-11.79576269061286	3.033076881861356	-4.468034598719251	-597.9785486503721	-60.78115747241179	-7.183382055097079	0.9080067758582718	0.7900262196124886	-0.6141270699235107	-1.745637758824707	0.5614344972885645	-0.8773199392774186	1.967659331058009	-1.859681762818282	-1.859681762818282	0.08257143091883556	-0.03955415826735372	-1.184704541765932	0.740520385688981	-1.259243964864771e-07	-2.352807718978107e-06	-4.683456732916915e-07	-2.552294724083992e-07	-2.793511763191387e-07	-1.249625709827964e-06	-1.46160382710841e-07
0.51	-0.3637655305749486	-0.03237515450331808	0.7113031469234692	1.366580911424766	-0.2790583259180232	0.03726987696756256	-0.3448299977696341	1.056983399902539	1.056983399902575	-0.09698769554180746	0.1745326720199751	0.2541713717232238	0.03034286394471785	-0.4412043329428577	-0.119259196471166	-0.7228038269014917	2.541767223386965	0.09817507734239768	0.7038819387317552	-0.5878943468352587	2.651971418648059	2.651971418648102	0.189006524919933	5.317711838675446e-06	0.7028694565932329	0.2751573259635879	-0.2137530134962473	0.00314712337285541	-0.01190539507453808	-0.2883588601980492	0.07892764938818328	0.02793483927706226	0.2070211517950146	-12.19563391978449	-11.18333296242918	2.73589261725863	-4.028838610307001	-604.4488577632475	-60.83962538462622	-5.700732435209735	0.9551650217201465	0.7937685244363157	-0.5140212131873052	-1.951200842037276	0.5085358656527509	-0.976727730257671	1.987807988997759	-2.084580007410437	-2.084580007427362	0.09998547168960965	0.02530328272599669	-1.272686086649359	0.6705109199808239	-1.348305721389622e-07	-2.503567209011144e-06	-5.383787093904795e-07	-2.784384933820171e-07	-2.783792526888206e-07	-1.367624991054195e-06	-1.513551173018405e-07
0.52	-0.3681292525527712	-0.03352800464590329	0.7040510150304318	1.391898118819425	-0.2780512556249771	0.04426029868852395	-0.3506088788180028	1.083395597978751	1.08339559797875	-0.09509261373250127	0.1745327811348616	0.261135462097429	0.03312787343257493	-0.4314724103653203	-0.1113045703606424	-0.7274582821643547	2.521357937363064	0.1031875044532212	0.694143354191099	-0.5678314712637008	2.630116178538796	2.630116178538726	0.1900284097810352	8.92722154549818e-06	0.6898276857891654	0.2817777778419411	-0.2208056273229355	0.002979594275869191	-0.01106802516365858	-0.2929303644954735	0.07682527738564307	0.02735516146478531	0.2129486711874724	-13.25155626278366	-10.58082031845499	2.450366820065359	-3.660448157229294	-610.8197539173406	-60.94192824437959	-4.395627725047063	0.9889987390284019	0.797085871350109	-0.4174607359718835	-2.125434850241511	0.501612021010959	-0.9499599092007065	2.028129220989088	-2.281865966930228	-2.281865966930233	0.1017898981448775	-0.04752980168543147	-1.330668162690379	0.6641950559732347	-1.411876866535414e-07	-2.387337612909263e-06	-4.233155126111398e-07	-2.672391486870493e-07	-2.635933386577873e-07	-1.314356681550312e-06	-1.572970613585718e-07
0.53	-0.372393726363024	-0.03460121970529673	0.696757274518351	1.417002000350147	-0.2769956469558803	0.0511517544066775	-0.3561857537939881	1.109578966617185	1.109578966617156	-0.09318701049827881	0.1745327308198038	0.2679656401394072	0.03597699227981203	-0.4213613413423462	-0.1033409812684708	-0.7311216300920753	2.499115406766028	0.1078775380001573	0.684077681335452	-0.5475111887510538	2.606222899807122	2.60622289980711	0.1911147709131606	-1.056426776161795e-05	0.6760991160091081	0.2879660769474989	-0.2277297751351267	0.002721284677860116	-0.01029889321331589	-0.2977193990492543	0.0745921966374813	0.02673164650003733	0.218720493385612	-14.36680014378903	-9.950335565467286	2.162042284398024	-3.143031775994781	-617.3112348293038	-61.03352297989184	-3.265001254738761	1.031286099064529	0.795562194255269	-0.3155944626060322	-2.319135648592858	0.4443761639702333	-1.045615499482424	2.038828043770241	-2.493224143834559	-2.493224143825784	0.1150971697500172	0.02220397077799863	-1.410368966994187	0.5845737665560042	-1.418474780878828e-07	-2.180673839211574e-06	-3.119301693479495e-07	-2.380063096110632e-07	-2.539829124653031e-07	-1.215719070757474e-06	-1.523122315432707e-07
0.54	-0.3765552644600201	-0.03559488552054756	0.689431935998706	1.441874361878068	-0.2758948025228261	0.05794040449112531	-0.3615584558893733	1.135513369404793	1.135513369404736	-0.09126993606293715	0.1745327581485163	0.2746552489673187	0.03888567940384653	-0.4108852677140677	-0.09539472153211712	-0.7337778836771602	2.475053936802661	0.1122346572445048	0.6735822274503759	-0.5269968951436981	2.580323008373504	2.580323008373551	0.1923226500054321	2.445597618533042e-05	0.6617138429758189	0.2936914332014149	-0.2346539229473183	0.002462975079849937	-0.009529761262970716	-0.3025084336030355	0.07235911588931911	0.02610813153528787	0.2244923155837515	-15.4792666543883	-9.330457195420589	1.886967468749602	-2.684330252050263	-623.74606515369	-61.17825726381776	-2.299629835461963	1.061999660089257	0.7936200001865115	-0.2160418674447599	-2.489222723507776	0.4350291604932132	-1.035916115086553	2.066931439930825	-2.683188507318961	-2.683188507318984	0.1260934901740886	-0.03662745503462259	-1.462008813336749	0.5716064856448662	-1.362038482419613e-07	-1.873955230727032e-06	-2.046139406132649e-07	-1.88821519305014e-07	-2.500985579239794e-07	-1.066885637261963e-06	-1.352382051035932e-07
0.55	-0.3806104359857013	-0.03650927030471952	0.6820850878176878	1.466497333943638	-0.2747519092998887	0.06462259602826353	-0.3667251405968405	1.161178897628559	1.161178897628435	-0.08934037254406789	0.1745328196614527	0.281197887770141	0.04184941561660245	-0.4000978627514186	-0.08749230195766849	-0.7354220483551851	2.44925313475892	0.1162868535039908	0.6627929685303258	-0.5063259779693031	2.552467413180349	2.552467413180316	0.193606876639132	-4.851656597319511e-06	0.6467216764828705	0.2989696770422545	-0.2413114884542963	0.002134354046431316	-0.008812304694349486	-0.3076011902343434	0.07018750141297224	0.02539033799068437	0.2300029406829454	-16.58474809995166	-8.667900383118511	1.60171240796259	-2.13336003992725	-630.1975988400981	-61.2837097148429	-1.516395354948925	1.094766430749797	0.7870105390745612	-0.1131977382444897	-2.668634392756354	0.3818472399223302	-1.110079795817293	2.069282113281639	-2.884003320214262	-2.884003320226141	0.1318651665556508	0.01506731425713759	-1.531729359313996	0.4933030642690396	-1.284316795071529e-07	-1.621151676903414e-06	-1.147118995126243e-07	-1.551704027646493e-07	-2.382243088132749e-07	-9.365721978016888e-07	-1.226272160470885e-07
0.5600000000000001	-0.384556202358476	-0.03734493937254691	0.6747268791958366	1.490853672899181	-0.2735701876381062	0.07119496517312827	-0.3716846940811461	1.186556418241413	1.186556418241222	-0.08739751117554788	0.1745328180443917	0.2875878231496259	0.04486340821395993	-0.3890042371328874	-0.07965157826319968	-0.7360499718437458	2.421727314797215	0.120000345013318	0.6516177489961535	-0.4855706505113969	2.522721486191176	2.522721486191064	0.1949822199363408	1.182997690899288e-05	0.6311731583083179	0.3037427101217159	-0.247969053961275	0.001805733013011085	-0.00809484812572038	-0.3126939468656521	0.06801588693662473	0.02467254444607862	0.2355135657821392	-17.68425851545921	-8.013907546764401	1.326410085730106	-1.65828036749623	-636.5511187550958	-61.42872126571463	-0.9117756312790658	1.123243791265676	0.7812808241905506	-0.01279362955187387	-2.83422630710057	0.3672882104614469	-1.113108237910958	2.083813496633063	-3.061254866522507	-3.061254866522509	0.1443168228758601	-0.0274296017768362	-1.573279149657534	0.4705643333692504	-1.181052641056805e-07	-1.433046188672903e-06	-4.570688357283569e-08	-1.401596947431053e-07	-2.167621862193137e-07	-8.284827511836991e-07	-1.153718718503912e-07
0.5700000000000001	-0.3883896555435892	-0.03810258697238628	0.6673674529634573	1.514926416303449	-0.2723529338550279	0.07765410032113218	-0.3764363832531288	1.211627295846892	1.211627295846863	-0.0854406019122745	0.1745328631604033	0.2938197072381746	0.04792266128913144	-0.3776464543809879	-0.07189562203500412	-0.7356656942422664	2.392549229260075	0.1233943983931897	0.6401542715553443	-0.4647701111685326	2.491155833658386	2.491155833658366	0.1964093568725055	4.440924904411813e-07	0.6151272497308842	0.3080171936184303	-0.2543249567059072	0.001413853175374609	-0.007412015053838937	-0.3180384246585179	0.06585572586185821	0.02388620418009629	0.240728587207498	-18.78882949333893	-7.32710049028401	1.043411423818808	-1.069675535112304	-642.8580233240184	-61.55329416570405	-0.4744950395517448	1.148018967391527	0.7700746388256413	0.08943458908523723	-3.000441538336416	0.3171166249568505	-1.171374118030542	2.077735060631206	-3.24892838004806	-3.248928380034269	0.1431816045679109	0.01251897098373589	-1.631764070195936	0.3924960478901571	-1.01973966845122e-07	-1.216669354880419e-06	1.617463069836576e-09	-1.252995588249959e-07	-1.916655508228143e-07	-7.081391836766728e-07	-1.025341981950711e-07
